<svg id="Group_5" data-name="Group 5" xmlns="http://www.w3.org/2000/svg" xmlns:xlink="http://www.w3.org/1999/xlink" width="512.801" height="95.338" viewBox="0 0 512.801 95.338">
  <defs>
    <clipPath id="clip-path">
      <rect id="Rectangle_5" data-name="Rectangle 5" width="512.801" height="95.338" fill="none"/>
    </clipPath>
  </defs>
  <g id="Group_4" data-name="Group 4" clip-path="url(#clip-path)">
    <path id="Path_226" data-name="Path 226" d="M22.708,34.642s12.5-3.22,12.5-15.547c0-8.4-5.476-13.032-8.966-15.133a9.834,9.834,0,0,0-5.077-1.411H0V53.073H11.621V35.467L23.942,53.073h13.2ZM11.621,25.436V12.058s12.322-3.17,12.322,6.687-12.322,6.692-12.322,6.692" transform="translate(0 -1.761)" fill="#ffd543"/>
    <path id="Path_227" data-name="Path 227" d="M201.916,0a26.051,26.051,0,1,0,26.051,26.051A26.053,26.053,0,0,0,201.916,0m0,40.22a14.169,14.169,0,1,1,14.169-14.169,14.166,14.166,0,0,1-14.169,14.169" transform="translate(-121.382 -0.001)" fill="#ffd543"/>
    <path id="Path_228" data-name="Path 228" d="M703.452,0A26.051,26.051,0,1,0,729.5,26.052,26.053,26.053,0,0,0,703.452,0m0,40.22a14.169,14.169,0,1,1,14.169-14.169,14.166,14.166,0,0,1-14.169,14.169" transform="translate(-467.544 -0.001)" fill="#28a2df"/>
    <path id="Path_229" data-name="Path 229" d="M401.154,52.1H414.18l5.633-34.941,10.21,34.149h10.562l10.034-34.149,5.633,33.8,11.97.176L459.067,0H445.161l-9.506,35.468L424.39.79H410.835Z" transform="translate(-276.877 0)" fill="#28a2df"/>
    <path id="Path_230" data-name="Path 230" d="M916.454,1.4h17.887A21.1,21.1,0,0,1,941.9,2.648a12.949,12.949,0,0,1,5.27,3.547,15.347,15.347,0,0,1,2.992,5.321,21.475,21.475,0,0,1,1,6.747A19.227,19.227,0,0,1,949.9,25.5a13.157,13.157,0,0,1-3.607,5.147,15.5,15.5,0,0,1-5.586,3.026,24.412,24.412,0,0,1-7.264,1.009h-5.572V52H916.454Zm15.792,24.413q4.388,0,6.7-2.086a7.257,7.257,0,0,0,2.311-5.669,7.363,7.363,0,0,0-2.244-5.668,9,9,0,0,0-6.367-2.086h-4.773v15.51Z" transform="translate(-632.538 -0.964)" fill="#28a2df"/>
    <path id="Path_231" data-name="Path 231" d="M1513.145,0A26.051,26.051,0,1,0,1539.2,26.052,26.052,26.052,0,0,0,1513.145,0m0,40.22a14.169,14.169,0,1,1,14.169-14.169,14.166,14.166,0,0,1-14.169,14.169" transform="translate(-1026.395 -0.001)" fill="#247227"/>
    <path id="Path_232" data-name="Path 232" d="M1299.428,34.116a14.964,14.964,0,0,1-12.845,7.4,15.26,15.26,0,0,1-15.048-15.463,15.26,15.26,0,0,1,15.048-15.463,14.938,14.938,0,0,1,12.51,6.855h12.495a26.053,26.053,0,1,0,.182,16.673Z" transform="translate(-870.305)" fill="#247227"/>
    <path id="Path_233" data-name="Path 233" d="M1105.413,11.916V21.991h17.779v9.991h-17.779V42.057h17.779v11H1093.8V1.387h29.395V11.916Z" transform="translate(-754.941 -0.957)" fill="#247227"/>
    <path id="Path_234" data-name="Path 234" d="M493.521,245.938c0,8.005-9.24,12.322-9.24,12.322s-9.245-4.316-9.245-12.322c0-2.553,5.813-7.309,9.245-1.585,3.432-5.724,9.24-.968,9.24,1.585" transform="translate(-327.871 -166.787)" fill="#8c7ab6"/>
    <path id="Path_235" data-name="Path 235" d="M1094.129,267.573h-14.167a1.517,1.517,0,0,1-1.517-1.517V249.543h17.2v16.513a1.517,1.517,0,0,1-1.517,1.517" transform="translate(-744.345 -172.235)" fill="#c1cc5b"/>
    <path id="Path_236" data-name="Path 236" d="M1101.98,233.377H1095.1v-.952a3.256,3.256,0,0,1,3.253-3.252h.377a3.256,3.256,0,0,1,3.252,3.252Zm-6.036-.847h5.189v-.105a2.408,2.408,0,0,0-2.406-2.406h-.377a2.409,2.409,0,0,0-2.406,2.406Z" transform="translate(-755.839 -158.176)" fill="#6c7353"/>
    <path id="Path_237" data-name="Path 237" d="M1091.518,237.854h-15.335a2.366,2.366,0,0,0-2.366,2.366v1.631a.379.379,0,0,0,.378.379h19.31a.379.379,0,0,0,.379-.379V240.22a2.366,2.366,0,0,0-2.366-2.366" transform="translate(-741.151 -164.167)" fill="#68812d"/>
    <path id="Path_238" data-name="Path 238" d="M1096.24,261.661a1.389,1.389,0,0,0-2.4,0l-1.541,2.671.381.191,1.528-2.65a.966.966,0,0,1,1.672,0l1.528,2.65.381-.191Zm3.725,6.451-1.761-3.048-.377.186,1.773,3.074a.958.958,0,0,1,0,.965.969.969,0,0,1-.838.483h-3.374v.423h3.374a1.389,1.389,0,0,0,1.2-2.083m-9.486,1.177a.96.96,0,0,1,0-.965l1.774-3.069-.381-.19-1.761,3.048a1.389,1.389,0,0,0,1.2,2.083h3.229v-.423h-3.229a.957.957,0,0,1-.834-.483" transform="translate(-752.267 -180.12)" fill="#68812d"/>
    <path id="Path_239" data-name="Path 239" d="M1093.3,273.343l-1.851,1.125,1.9,1.04Z" transform="translate(-753.318 -188.662)" fill="#68812d"/>
    <path id="Path_240" data-name="Path 240" d="M1111.37,268.655v-2.166l-1.876,1.083Z" transform="translate(-765.775 -183.931)" fill="#68812d"/>
    <path id="Path_241" data-name="Path 241" d="M1106.171,287.661l1.876,1.083v-2.166Z" transform="translate(-763.482 -197.797)" fill="#68812d"/>
    <path id="Path_242" data-name="Path 242" d="M70.063,248.924H77.4v1.78H72.043v3.215h4.329v1.78H72.043v3.111h5.7v1.78h-7.68Z" transform="translate(-48.358 -171.807)" fill="#676768"/>
    <path id="Path_243" data-name="Path 243" d="M109.324,258.079h-4.762l-.874,2.509h-2.069l4.354-11.665H107.9l4.377,11.665h-2.076Zm-.6-1.716-1.772-5.051h-.016l-1.772,5.051Z" transform="translate(-70.138 -171.807)" fill="#676768"/>
    <path id="Path_244" data-name="Path 244" d="M143.834,259.974a6.069,6.069,0,0,1-1.988-1.371l1.251-1.539a4.344,4.344,0,0,0,1.415,1.142,3.515,3.515,0,0,0,1.575.4,2.34,2.34,0,0,0,1.443-.381,1.246,1.246,0,0,0,.5-1.046,1.427,1.427,0,0,0-.052-.4,1.472,1.472,0,0,0-.133-.321,1.066,1.066,0,0,0-.24-.276,2.6,2.6,0,0,0-.317-.233,3.464,3.464,0,0,0-.425-.213q-.269-.116-.493-.2t-.593-.216q-.433-.152-.754-.28t-.709-.321a4.5,4.5,0,0,1-1.223-.854,2.453,2.453,0,0,1-.449-.569,3.129,3.129,0,0,1-.277-.69,3.081,3.081,0,0,1-.108-.83,2.94,2.94,0,0,1,.5-1.651,3.435,3.435,0,0,1,1.343-1.182,4.009,4.009,0,0,1,1.84-.429,6.126,6.126,0,0,1,3.864,1.435l-1.178,1.555a4.328,4.328,0,0,0-2.686-1.195,1.808,1.808,0,0,0-1.158.365,1.225,1.225,0,0,0-.469,1,1.12,1.12,0,0,0,.577.978,10.861,10.861,0,0,0,1.6.714,19.2,19.2,0,0,1,1.956.85,2.979,2.979,0,0,1,1.451,1.531,3.618,3.618,0,0,1-.04,2.485,3,3,0,0,1-.638.986,3.81,3.81,0,0,1-.922.681,4.359,4.359,0,0,1-1.086.409,5.057,5.057,0,0,1-1.13.128,5.762,5.762,0,0,1-2.245-.457" transform="translate(-97.902 -171.521)" fill="#676768"/>
    <path id="Path_245" data-name="Path 245" d="M183.441,248.924l-3.921,6.51v5.155h-1.988v-5.155l-3.9-6.51H175.9l2.605,4.522h.048l2.59-4.522Z" transform="translate(-119.844 -171.807)" fill="#676768"/>
    <path id="Path_246" data-name="Path 246" d="M230.485,250.7h-3.311v-1.78h8.635v1.78h-3.343v9.885h-1.98Z" transform="translate(-156.796 -171.808)" fill="#676768"/>
    <path id="Path_247" data-name="Path 247" d="M263.114,259.978a5.443,5.443,0,0,1-1.872-1.243,5.652,5.652,0,0,1-1.2-1.892,6.723,6.723,0,0,1,0-4.746,5.652,5.652,0,0,1,1.2-1.892,5.442,5.442,0,0,1,1.872-1.243,6.542,6.542,0,0,1,4.734-.02,5.527,5.527,0,0,1,1.868,1.206,5.469,5.469,0,0,1,1.226,1.888,6.861,6.861,0,0,1,0,4.863,5.421,5.421,0,0,1-1.226,1.888,5.612,5.612,0,0,1-1.868,1.206,6.2,6.2,0,0,1-2.337.437,6.271,6.271,0,0,1-2.4-.453m3.9-1.708a3.619,3.619,0,0,0,1.211-.85,4.017,4.017,0,0,0,.8-1.307,4.726,4.726,0,0,0,0-3.3,3.978,3.978,0,0,0-.8-1.3,3.648,3.648,0,0,0-1.211-.846,3.719,3.719,0,0,0-1.507-.309,3.782,3.782,0,0,0-1.556.321,3.56,3.56,0,0,0-1.218.874,4.1,4.1,0,0,0-.782,1.307,4.668,4.668,0,0,0,0,3.211,4.085,4.085,0,0,0,.782,1.311,3.556,3.556,0,0,0,1.218.874,3.787,3.787,0,0,0,1.556.321,3.72,3.72,0,0,0,1.507-.309" transform="translate(-179.183 -171.521)" fill="#676768"/>
    <path id="Path_248" data-name="Path 248" d="M326.816,260.388a4.07,4.07,0,0,1-1.463-.95,4.239,4.239,0,0,1-.946-1.551,6.116,6.116,0,0,1-.337-2.093v-6.871h1.98v6.719a4.116,4.116,0,0,0,.313,1.651,2.581,2.581,0,0,0,.918,1.134,2.463,2.463,0,0,0,1.423.413,2.437,2.437,0,0,0,1.936-.858,3.461,3.461,0,0,0,.741-2.341v-6.719h1.98v6.871a5.048,5.048,0,0,1-1.243,3.6,4.459,4.459,0,0,1-3.415,1.323,5.219,5.219,0,0,1-1.888-.329" transform="translate(-223.674 -171.807)" fill="#676768"/>
    <path id="Path_249" data-name="Path 249" d="M364.964,259.974a6.068,6.068,0,0,1-1.988-1.371l1.251-1.539a4.344,4.344,0,0,0,1.415,1.142,3.515,3.515,0,0,0,1.575.4,2.34,2.34,0,0,0,1.443-.381,1.246,1.246,0,0,0,.5-1.046,1.417,1.417,0,0,0-.052-.4,1.448,1.448,0,0,0-.132-.321,1.066,1.066,0,0,0-.24-.276,2.569,2.569,0,0,0-.317-.233,3.455,3.455,0,0,0-.425-.213q-.269-.116-.493-.2t-.593-.216q-.433-.152-.754-.28t-.71-.321a4.949,4.949,0,0,1-.665-.389,5.005,5.005,0,0,1-.557-.465,2.454,2.454,0,0,1-.449-.569,3.129,3.129,0,0,1-.277-.69,3.093,3.093,0,0,1-.108-.83,2.94,2.94,0,0,1,.5-1.651,3.434,3.434,0,0,1,1.343-1.182,4.009,4.009,0,0,1,1.84-.429,6.126,6.126,0,0,1,3.864,1.435l-1.178,1.555a4.328,4.328,0,0,0-2.686-1.195,1.808,1.808,0,0,0-1.158.365,1.225,1.225,0,0,0-.469,1,1.12,1.12,0,0,0,.577.978,10.854,10.854,0,0,0,1.6.714,19.192,19.192,0,0,1,1.956.85,2.979,2.979,0,0,1,1.451,1.531,3.619,3.619,0,0,1-.04,2.485,3.013,3.013,0,0,1-.637.986,3.819,3.819,0,0,1-.922.681,4.353,4.353,0,0,1-1.086.409,5.057,5.057,0,0,1-1.13.128,5.761,5.761,0,0,1-2.245-.457" transform="translate(-250.527 -171.521)" fill="#676768"/>
    <path id="Path_250" data-name="Path 250" d="M399.372,248.924h7.336v1.78h-5.356v3.215h4.329v1.78h-4.329v3.111h5.7v1.78h-7.681Z" transform="translate(-275.647 -171.807)" fill="#676768"/>
    <path id="Path_251" data-name="Path 251" d="M581.891,248.924l-3.7,11.665h-1.852l-2.389-8.771h-.024l-2.437,8.771H569.64l-3.7-11.665h2.116l2.5,8.418h.016l2.293-8.418h2.109l2.277,8.442h.016l2.509-8.442Z" transform="translate(-390.616 -171.807)" fill="#676768"/>
    <rect id="Rectangle_1" data-name="Rectangle 1" width="1.988" height="11.665" transform="translate(194.116 77.116)" fill="#676768"/>
    <path id="Path_252" data-name="Path 252" d="M645.1,248.924h4.225a5.818,5.818,0,0,1,1.259.128,3.81,3.81,0,0,1,1.014.369,3.268,3.268,0,0,1,.766.578,2.862,2.862,0,0,1,.533.761,4.053,4.053,0,0,1,.309.91,4.946,4.946,0,0,1,.1,1.038,4.4,4.4,0,0,1-.2,1.355,3.088,3.088,0,0,1-.561,1.046,3.209,3.209,0,0,1-.886.734,4.19,4.19,0,0,1-1.166.441,6.458,6.458,0,0,1-1.407.144h-2.012v4.161H645.1Zm3.8,5.716a2.561,2.561,0,0,0,1.768-.533,2.077,2.077,0,0,0,.012-2.886,2.381,2.381,0,0,0-1.643-.517h-1.957v3.936Z" transform="translate(-445.251 -171.808)" fill="#676768"/>
    <path id="Path_253" data-name="Path 253" d="M681.11,248.924h7.336v1.78h-5.355v3.215h4.329v1.78h-4.329v3.111h5.7v1.78H681.11Z" transform="translate(-470.104 -171.807)" fill="#676768"/>
    <path id="Path_254" data-name="Path 254" d="M733.172,250.7h-3.311v-1.78H738.5v1.78h-3.343v9.885h-1.98Z" transform="translate(-503.752 -171.808)" fill="#676768"/>
    <path id="Path_255" data-name="Path 255" d="M766.671,248.924h1.98v5.211h5.275v-5.211h1.98v11.665h-1.98v-4.674h-5.275v4.674h-1.98Z" transform="translate(-529.158 -171.807)" fill="#676768"/>
    <path id="Path_256" data-name="Path 256" d="M808.347,248.924h7.336v1.78h-5.355v3.215h4.329v1.78h-4.329v3.111h5.7v1.78h-7.68Z" transform="translate(-557.922 -171.807)" fill="#676768"/>
    <path id="Path_257" data-name="Path 257" d="M854.879,248.924v11.665H852.9v-7.817h-.024l-3.191,5.572h-1.3l-3.191-5.572h-.024v7.817h-1.98V248.924h1.988l3.848,6.983h.032l3.832-6.983Z" transform="translate(-581.972 -171.807)" fill="#676768"/>
    <path id="Path_258" data-name="Path 258" d="M917.429,255.457a2.956,2.956,0,0,1,.622,1.932,3.385,3.385,0,0,1-.237,1.287,2.785,2.785,0,0,1-.7,1.01,3.173,3.173,0,0,1-1.2.665,5.509,5.509,0,0,1-1.684.237h-4.61V248.923h4.057a4.707,4.707,0,0,1,2.81.718,2.468,2.468,0,0,1,.982,2.129,3.014,3.014,0,0,1-.429,1.575,2.515,2.515,0,0,1-1.279,1.054v.032a3.046,3.046,0,0,1,1.672,1.026m-5.833-1.7h1.892a2.885,2.885,0,0,0,.726-.088,2.129,2.129,0,0,0,.621-.269,1.294,1.294,0,0,0,.445-.485,1.46,1.46,0,0,0,.165-.705,1.322,1.322,0,0,0-.525-1.115,2.659,2.659,0,0,0-1.631-.393H911.6Zm3.752,4.63a1.358,1.358,0,0,0,.634-1.215,1.482,1.482,0,0,0-.593-1.247,2.771,2.771,0,0,0-1.708-.453H911.6v3.335h2.044a3.134,3.134,0,0,0,1.708-.421" transform="translate(-627.819 -171.807)" fill="#676768"/>
    <rect id="Rectangle_2" data-name="Rectangle 2" width="1.988" height="11.665" transform="translate(293.33 77.116)" fill="#676768"/>
    <path id="Path_259" data-name="Path 259" d="M975.032,248.924v11.665h-2.02l-5.644-8.25h-.032v8.25h-1.98V248.924h1.964l5.693,8.37h.04v-8.37Z" transform="translate(-666.29 -171.807)" fill="#676768"/>
    <path id="Path_260" data-name="Path 260" d="M1176.769,248.924h7.336v1.78h-5.355v3.215h4.329v1.78h-4.329v3.111h5.7v1.78h-7.681Z" transform="translate(-812.208 -171.807)" fill="#676768"/>
    <path id="Path_261" data-name="Path 261" d="M1212.512,260.166a5.572,5.572,0,0,1-1.615-.734,5.5,5.5,0,0,1-1.287-1.187,5.2,5.2,0,0,1-.85-1.652,6.84,6.84,0,0,1-.3-2.081,7.25,7.25,0,0,1,.245-1.9,5.563,5.563,0,0,1,1.936-2.942,5.208,5.208,0,0,1,1.648-.854,6.7,6.7,0,0,1,2.056-.3,5.861,5.861,0,0,1,4.594,2.237l-1.459,1.234a4.438,4.438,0,0,0-1.407-1.163,3.66,3.66,0,0,0-1.728-.432,3.824,3.824,0,0,0-1.989.513A3.5,3.5,0,0,0,1211,252.35a4.68,4.68,0,0,0-.481,2.165,4.391,4.391,0,0,0,.489,2.1,3.523,3.523,0,0,0,1.359,1.423,3.844,3.844,0,0,0,1.968.505,3.647,3.647,0,0,0,1.748-.429,4.462,4.462,0,0,0,1.387-1.158l1.459,1.243a5.979,5.979,0,0,1-1.968,1.612,5.649,5.649,0,0,1-2.626.6,6.854,6.854,0,0,1-1.828-.24" transform="translate(-834.078 -171.521)" fill="#676768"/>
    <path id="Path_262" data-name="Path 262" d="M1253.141,259.978a5.443,5.443,0,0,1-1.872-1.243,5.657,5.657,0,0,1-1.2-1.892,6.726,6.726,0,0,1,0-4.746,5.658,5.658,0,0,1,1.2-1.892,5.443,5.443,0,0,1,1.872-1.243,6.543,6.543,0,0,1,4.735-.02,5.353,5.353,0,0,1,3.095,3.094,6.867,6.867,0,0,1,0,4.863,5.426,5.426,0,0,1-1.227,1.888,5.61,5.61,0,0,1-1.868,1.206,6.2,6.2,0,0,1-2.337.437,6.273,6.273,0,0,1-2.4-.453m3.9-1.708a3.62,3.62,0,0,0,1.211-.85,4.028,4.028,0,0,0,.8-1.307,4.724,4.724,0,0,0,0-3.3,3.988,3.988,0,0,0-.8-1.3,3.649,3.649,0,0,0-1.211-.846,3.719,3.719,0,0,0-1.507-.309,3.781,3.781,0,0,0-1.555.321,3.56,3.56,0,0,0-1.219.874,4.1,4.1,0,0,0-.782,1.307,4.669,4.669,0,0,0,0,3.211,4.087,4.087,0,0,0,.782,1.311,3.556,3.556,0,0,0,1.219.874,3.786,3.786,0,0,0,1.555.321,3.72,3.72,0,0,0,1.507-.309" transform="translate(-862.503 -171.521)" fill="#676768"/>
    <rect id="Rectangle_3" data-name="Rectangle 3" width="4.746" height="1.716" transform="translate(401.362 82.439)" fill="#676768"/>
    <path id="Path_263" data-name="Path 263" d="M1320.491,248.924h7.624v1.78h-5.644v3.487h4.738v1.78h-4.738v4.618h-1.98Z" transform="translate(-911.405 -171.807)" fill="#676768"/>
    <path id="Path_264" data-name="Path 264" d="M1361.021,260.588l-2.782-4.161h-1.571v4.161h-1.98V248.923h4.3a5.483,5.483,0,0,1,1.472.185,3.507,3.507,0,0,1,1.126.521,3.116,3.116,0,0,1,.778.81,3.469,3.469,0,0,1,.461,1.042,4.864,4.864,0,0,1,.148,1.227,3.693,3.693,0,0,1-.669,2.289,3.423,3.423,0,0,1-1.888,1.223v.032l2.983,4.337Zm-4.353-5.941h1.892a2.57,2.57,0,0,0,1.764-.537,2.057,2.057,0,0,0,.02-2.886,2.387,2.387,0,0,0-1.648-.521h-2.028Z" transform="translate(-935.007 -171.807)" fill="#676768"/>
    <rect id="Rectangle_4" data-name="Rectangle 4" width="1.988" height="11.665" transform="translate(431.324 77.116)" fill="#676768"/>
    <path id="Path_265" data-name="Path 265" d="M1410.787,248.924h7.336v1.78h-5.355v3.215h4.329v1.78h-4.329v3.111h5.7v1.78h-7.68Z" transform="translate(-973.728 -171.807)" fill="#676768"/>
    <path id="Path_266" data-name="Path 266" d="M1455.307,248.924v11.665h-2.02l-5.644-8.25h-.032v8.25h-1.98V248.924h1.964l5.692,8.37h.04v-8.37Z" transform="translate(-997.777 -171.807)" fill="#676768"/>
    <path id="Path_267" data-name="Path 267" d="M1488.73,248.924h3.712a6.99,6.99,0,0,1,2.5.433,5.425,5.425,0,0,1,1.916,1.2,5.332,5.332,0,0,1,1.207,1.852,6.36,6.36,0,0,1,.429,2.365,6.459,6.459,0,0,1-.417,2.357,5.279,5.279,0,0,1-1.178,1.84,5.211,5.211,0,0,1-1.9,1.191,7.121,7.121,0,0,1-2.513.425h-3.76Zm3.64,9.885a4.514,4.514,0,0,0,1.676-.3,3.678,3.678,0,0,0,1.3-.842,3.8,3.8,0,0,0,.818-1.283,4.6,4.6,0,0,0-.208-3.7,3.614,3.614,0,0,0-1.411-1.451,4.061,4.061,0,0,0-2.056-.521h-1.771v8.105Z" transform="translate(-1027.524 -171.808)" fill="#676768"/>
    <path id="Path_268" data-name="Path 268" d="M1530.4,248.924h1.98v9.885h5.4v1.78H1530.4Z" transform="translate(-1056.288 -171.807)" fill="#676768"/>
    <path id="Path_269" data-name="Path 269" d="M1564.6,248.924l-3.92,6.51v5.155h-1.988v-5.155l-3.9-6.51h2.269l2.606,4.522h.048l2.59-4.522Z" transform="translate(-1073.121 -171.807)" fill="#676768"/>
  </g>
</svg>
